STARTFONT 2.1
COMMENT Created by fdbbdf
FONT helvetica12i
SIZE 12 78 78
FONTBOUNDINGBOX 18 14 -3 -4
STARTPROPERTIES 4
Ownership "  Copyright (c) 1984 Adobe Systems, Inc.  /adobe/fonttools/bitmaps/stdfontvec.ps HM14.bits  TOTAL BITMAP BYTES 1442  GUIDELINES -3 0 0 11 8 0 DONE  WIDTHERR -119 -81  "
FONT_ASCENT 10
FONT_DESCENT 4
DEFAULT_CHAR 32
ENDPROPERTIES
CHARS 95
STARTCHAR sp
ENCODING -1 32
SWIDTH 0 0
DWIDTH 4 0
BBX 0 0 0 0
BITMAP
ENDCHAR
STARTCHAR !
ENCODING -1 33
SWIDTH 0 0
DWIDTH 4 0
BBX 4 11 1 -1
BITMAP
1000
1000
2000
2000
2000
4000
4000
4000
0000
8000
8000
ENDCHAR
STARTCHAR "
ENCODING -1 34
SWIDTH 0 0
DWIDTH 5 0
BBX 4 3 2 7
BITMAP
5000
5000
a000
ENDCHAR
STARTCHAR #
ENCODING -1 35
SWIDTH 0 0
DWIDTH 9 0
BBX 9 10 0 -1
BITMAP
0900
0900
1200
7f80
1200
2400
fe00
2400
4800
4800
ENDCHAR
STARTCHAR $
ENCODING -1 36
SWIDTH 0 0
DWIDTH 8 0
BBX 8 13 0 -3
BITMAP
0400
1e00
2500
2500
1800
0c00
0a00
1200
9200
9400
7800
2000
2000
ENDCHAR
STARTCHAR %
ENCODING -1 37
SWIDTH 0 0
DWIDTH 12 0
BBX 10 11 2 -1
BITMAP
0040
7080
8900
8a00
7400
0400
0800
1700
2880
4880
8700
ENDCHAR
STARTCHAR &
ENCODING -1 38
SWIDTH 0 0
DWIDTH 10 0
BBX 8 10 1 -1
BITMAP
1800
2400
2400
1800
3000
4900
8600
8400
8a00
7100
ENDCHAR
STARTCHAR '
ENCODING -1 39
SWIDTH 0 0
DWIDTH 3 0
BBX 2 3 3 7
BITMAP
c000
4000
8000
ENDCHAR
STARTCHAR (
ENCODING -1 40
SWIDTH 0 0
DWIDTH 5 0
BBX 5 14 1 -4
BITMAP
0800
1000
2000
2000
4000
4000
8000
8000
8000
8000
8000
8000
4000
4000
ENDCHAR
STARTCHAR )
ENCODING -1 41
SWIDTH 0 0
DWIDTH 5 0
BBX 5 14 0 -4
BITMAP
1000
1000
0800
0800
0800
0800
0800
0800
1000
1000
2000
2000
4000
8000
ENDCHAR
STARTCHAR *
ENCODING -1 42
SWIDTH 0 0
DWIDTH 8 0
BBX 6 5 3 5
BITMAP
1000
5400
7800
a800
2000
ENDCHAR
STARTCHAR +
ENCODING -1 43
SWIDTH 0 0
DWIDTH 9 0
BBX 7 7 1 0
BITMAP
1000
1000
1000
fe00
1000
1000
1000
ENDCHAR
STARTCHAR ,
ENCODING -1 44
SWIDTH 0 0
DWIDTH 3 0
BBX 2 4 0 -3
BITMAP
4000
4000
4000
8000
ENDCHAR
STARTCHAR -
ENCODING -1 45
SWIDTH 0 0
DWIDTH 6 0
BBX 5 1 1 3
BITMAP
f800
ENDCHAR
STARTCHAR .
ENCODING -1 46
SWIDTH 0 0
DWIDTH 3 0
BBX 1 2 1 -1
BITMAP
8000
8000
ENDCHAR
STARTCHAR /
ENCODING -1 47
SWIDTH 0 0
DWIDTH 4 0
BBX 5 11 0 -1
BITMAP
0800
0800
1000
1000
2000
2000
2000
4000
4000
8000
8000
ENDCHAR
STARTCHAR 0
ENCODING -1 48
SWIDTH 0 0
DWIDTH 10 0
BBX 9 10 1 -1
BITMAP
0f00
1080
2080
2100
4100
4100
4200
8200
8400
7800
ENDCHAR
STARTCHAR 1
ENCODING -1 49
SWIDTH 0 0
DWIDTH 6 0
BBX 5 10 1 -1
BITMAP
0800
7800
1000
1000
2000
2000
2000
4000
4000
4000
ENDCHAR
STARTCHAR 2
ENCODING -1 50
SWIDTH 0 0
DWIDTH 8 0
BBX 8 10 0 -1
BITMAP
1e00
2100
0100
0100
0600
1800
2000
4000
8000
fc00
ENDCHAR
STARTCHAR 3
ENCODING -1 51
SWIDTH 0 0
DWIDTH 8 0
BBX 8 10 0 -1
BITMAP
1e00
2100
0100
0200
1c00
0200
0200
8200
8400
7800
ENDCHAR
STARTCHAR 4
ENCODING -1 52
SWIDTH 0 0
DWIDTH 8 0
BBX 8 10 0 -1
BITMAP
0300
0500
0a00
1200
2400
4400
ff00
0800
1000
1000
ENDCHAR
STARTCHAR 5
ENCODING -1 53
SWIDTH 0 0
DWIDTH 8 0
BBX 8 10 0 -1
BITMAP
1f00
1000
2000
3c00
0200
0200
0200
8400
8400
7800
ENDCHAR
STARTCHAR 6
ENCODING -1 54
SWIDTH 0 0
DWIDTH 8 0
BBX 8 10 0 -1
BITMAP
0e00
1100
1000
2000
3c00
2200
4200
4200
4400
3800
ENDCHAR
STARTCHAR 7
ENCODING -1 55
SWIDTH 0 0
DWIDTH 7 0
BBX 7 10 1 -1
BITMAP
7e00
0400
0800
1000
2000
2000
4000
4000
8000
8000
ENDCHAR
STARTCHAR 8
ENCODING -1 56
SWIDTH 0 0
DWIDTH 9 0
BBX 8 10 1 -1
BITMAP
1e00
2100
4100
4200
3c00
4200
8200
8200
8400
7800
ENDCHAR
STARTCHAR 9
ENCODING -1 57
SWIDTH 0 0
DWIDTH 8 0
BBX 8 10 0 -1
BITMAP
0e00
1100
2100
2100
2200
1e00
0200
0400
8800
7000
ENDCHAR
STARTCHAR :
ENCODING -1 58
SWIDTH 0 0
DWIDTH 4 0
BBX 3 8 1 -1
BITMAP
2000
2000
0000
0000
0000
0000
8000
8000
ENDCHAR
STARTCHAR ;
ENCODING -1 59
SWIDTH 0 0
DWIDTH 4 0
BBX 4 10 0 -3
BITMAP
1000
1000
0000
0000
0000
0000
4000
4000
4000
8000
ENDCHAR
STARTCHAR <
ENCODING -1 60
SWIDTH 0 0
DWIDTH 9 0
BBX 7 5 1 1
BITMAP
0600
3800
c000
3000
0c00
ENDCHAR
STARTCHAR =
ENCODING -1 61
SWIDTH 0 0
DWIDTH 9 0
BBX 7 3 1 2
BITMAP
7e00
0000
7e00
ENDCHAR
STARTCHAR >
ENCODING -1 62
SWIDTH 0 0
DWIDTH 9 0
BBX 7 5 1 1
BITMAP
6000
1800
0600
3800
c000
ENDCHAR
STARTCHAR ?
ENCODING -1 63
SWIDTH 0 0
DWIDTH 8 0
BBX 6 11 3 -1
BITMAP
3800
4400
8400
8400
0800
1000
2000
4000
0000
8000
8000
ENDCHAR
STARTCHAR @
ENCODING -1 64
SWIDTH 0 0
DWIDTH 13 0
BBX 12 12 1 -2
BITMAP
07c0
1820
2010
4750
4890
9120
9120
9340
9d80
4000
6000
1f00
ENDCHAR
STARTCHAR A
ENCODING -1 65
SWIDTH 0 0
DWIDTH 11 0
BBX 9 11 1 -1
BITMAP
0300
0500
0500
0900
1100
1100
2080
3f80
4080
8080
8080
ENDCHAR
STARTCHAR B
ENCODING -1 66
SWIDTH 0 0
DWIDTH 10 0
BBX 9 11 1 -1
BITMAP
1f00
1080
2080
2080
2100
7e00
4100
4100
8100
8200
fc00
ENDCHAR
STARTCHAR C
ENCODING -1 67
SWIDTH 0 0
DWIDTH 10 0
BBX 9 11 1 -1
BITMAP
0f00
1080
2080
4000
4000
8000
8000
8000
8100
4200
3c00
ENDCHAR
STARTCHAR D
ENCODING -1 68
SWIDTH 0 0
DWIDTH 11 0
BBX 10 11 1 -1
BITMAP
1f00
1080
2080
2040
2040
4040
4080
4080
8100
8600
f800
ENDCHAR
STARTCHAR E
ENCODING -1 69
SWIDTH 0 0
DWIDTH 10 0
BBX 10 11 1 -1
BITMAP
1fc0
1000
1000
2000
2000
7e00
4000
4000
8000
8000
fe00
ENDCHAR
STARTCHAR F
ENCODING -1 70
SWIDTH 0 0
DWIDTH 9 0
BBX 10 11 1 -1
BITMAP
1fc0
1000
2000
2000
2000
7e00
4000
4000
8000
8000
8000
ENDCHAR
STARTCHAR G
ENCODING -1 71
SWIDTH 0 0
DWIDTH 11 0
BBX 10 11 1 -1
BITMAP
0700
18c0
2040
4000
4000
8780
8080
8100
8100
4600
3a00
ENDCHAR
STARTCHAR H
ENCODING -1 72
SWIDTH 0 0
DWIDTH 11 0
BBX 11 11 1 -1
BITMAP
1020
1020
2040
2040
2040
7f80
4080
4080
8100
8100
8100
ENDCHAR
STARTCHAR I
ENCODING -1 73
SWIDTH 0 0
DWIDTH 5 0
BBX 4 11 1 -1
BITMAP
1000
1000
2000
2000
2000
4000
4000
4000
8000
8000
8000
ENDCHAR
STARTCHAR J
ENCODING -1 74
SWIDTH 0 0
DWIDTH 9 0
BBX 9 11 1 -1
BITMAP
0080
0080
0100
0100
0100
0200
0200
8200
8400
8c00
7000
ENDCHAR
STARTCHAR K
ENCODING -1 75
SWIDTH 0 0
DWIDTH 11 0
BBX 9 11 1 -1
BITMAP
1080
1100
2200
2400
2800
7800
4800
4400
8200
8200
8100
ENDCHAR
STARTCHAR L
ENCODING -1 76
SWIDTH 0 0
DWIDTH 8 0
BBX 6 11 1 -1
BITMAP
1000
1000
2000
2000
2000
4000
4000
4000
8000
8000
fc00
ENDCHAR
STARTCHAR M
ENCODING -1 77
SWIDTH 0 0
DWIDTH 14 0
BBX 14 11 1 -1
BITMAP
100c
1014
2828
2828
2848
4890
4890
4510
8520
8620
8420
ENDCHAR
STARTCHAR N
ENCODING -1 78
SWIDTH 0 0
DWIDTH 11 0
BBX 11 11 1 -1
BITMAP
1020
1020
2840
2840
2440
4480
4480
4280
8300
8100
8100
ENDCHAR
STARTCHAR O
ENCODING -1 79
SWIDTH 0 0
DWIDTH 11 0
BBX 10 11 1 -1
BITMAP
0700
18c0
2040
4040
4040
8040
8080
8080
8100
c600
3800
ENDCHAR
STARTCHAR P
ENCODING -1 80
SWIDTH 0 0
DWIDTH 10 0
BBX 9 11 1 -1
BITMAP
1f00
1080
2080
2080
2100
7e00
4000
4000
8000
8000
8000
ENDCHAR
STARTCHAR Q
ENCODING -1 81
SWIDTH 0 0
DWIDTH 12 0
BBX 10 11 1 -1
BITMAP
0700
18c0
2040
4040
4040
8040
8880
8480
8300
c700
3880
ENDCHAR
STARTCHAR R
ENCODING -1 82
SWIDTH 0 0
DWIDTH 11 0
BBX 9 11 1 -1
BITMAP
1f00
1080
2080
2080
2100
7e00
4100
4100
8100
8200
8200
ENDCHAR
STARTCHAR S
ENCODING -1 83
SWIDTH 0 0
DWIDTH 11 0
BBX 9 11 1 -1
BITMAP
0f00
1080
2080
2000
1800
0600
0100
0100
8100
c600
3800
ENDCHAR
STARTCHAR T
ENCODING -1 84
SWIDTH 0 0
DWIDTH 9 0
BBX 9 11 2 -1
BITMAP
ff80
0800
1000
1000
1000
2000
2000
2000
4000
4000
4000
ENDCHAR
STARTCHAR U
ENCODING -1 85
SWIDTH 0 0
DWIDTH 11 0
BBX 11 11 1 -1
BITMAP
1020
1020
1040
2040
2040
2080
4080
4080
4100
4300
3c00
ENDCHAR
STARTCHAR V
ENCODING -1 86
SWIDTH 0 0
DWIDTH 10 0
BBX 7 11 4 -1
BITMAP
8200
8200
8400
8400
8800
8800
9000
9000
6000
6000
4000
ENDCHAR
STARTCHAR W
ENCODING -1 87
SWIDTH 0 0
DWIDTH 13 0
BBX 12 11 1 -1
BITMAP
8410
8410
8c20
8c20
9440
9440
a480
a480
c300
c300
8200
ENDCHAR
STARTCHAR X
ENCODING -1 88
SWIDTH 0 0
DWIDTH 11 0
BBX 11 11 1 -1
BITMAP
1020
1040
0880
0900
0600
0400
0a00
1200
2100
4100
8080
ENDCHAR
STARTCHAR Y
ENCODING -1 89
SWIDTH 0 0
DWIDTH 9 0
BBX 8 11 3 -1
BITMAP
8100
8200
8200
4400
4800
4800
3000
2000
2000
4000
4000
ENDCHAR
STARTCHAR Z
ENCODING -1 90
SWIDTH 0 0
DWIDTH 10 0
BBX 10 11 1 -1
BITMAP
1fc0
0040
0080
0100
0200
0400
0800
1000
2000
4000
fe00
ENDCHAR
STARTCHAR [
ENCODING -1 91
SWIDTH 0 0
DWIDTH 5 0
BBX 7 14 0 -4
BITMAP
0e00
0800
1000
1000
1000
2000
2000
2000
4000
4000
4000
8000
8000
e000
ENDCHAR
STARTCHAR \
ENCODING -1 92
SWIDTH 0 0
DWIDTH 6 0
BBX 3 11 2 -1
BITMAP
8000
8000
8000
4000
4000
4000
4000
2000
2000
2000
2000
ENDCHAR
STARTCHAR ]
ENCODING -1 93
SWIDTH 0 0
DWIDTH 5 0
BBX 7 14 -1 -4
BITMAP
0e00
0200
0400
0400
0400
0800
0800
0800
1000
1000
1000
2000
2000
e000
ENDCHAR
STARTCHAR ^
ENCODING -1 94
SWIDTH 0 0
DWIDTH 7 0
BBX 6 5 1 5
BITMAP
0400
0c00
1400
2400
4400
ENDCHAR
STARTCHAR _
ENCODING -1 95
SWIDTH 0 0
DWIDTH 8 0
BBX 8 1 -1 -4
BITMAP
ff00
ENDCHAR
STARTCHAR `
ENCODING -1 96
SWIDTH 0 0
DWIDTH 3 0
BBX 2 3 2 7
BITMAP
4000
8000
c000
ENDCHAR
STARTCHAR a
ENCODING -1 97
SWIDTH 0 0
DWIDTH 8 0
BBX 7 8 0 -1
BITMAP
1c00
2200
0200
3c00
4400
8800
9800
6c00
ENDCHAR
STARTCHAR b
ENCODING -1 98
SWIDTH 0 0
DWIDTH 8 0
BBX 8 11 0 -1
BITMAP
1000
1000
2000
2c00
3200
4200
4200
4400
8400
c800
b000
ENDCHAR
STARTCHAR c
ENCODING -1 99
SWIDTH 0 0
DWIDTH 7 0
BBX 7 8 0 -1
BITMAP
1c00
2200
4000
4000
8000
8400
8800
7000
ENDCHAR
STARTCHAR d
ENCODING -1 100
SWIDTH 0 0
DWIDTH 8 0
BBX 9 11 0 -1
BITMAP
0080
0080
0100
1d00
2300
2200
4200
4200
4400
4c00
3400
ENDCHAR
STARTCHAR e
ENCODING -1 101
SWIDTH 0 0
DWIDTH 8 0
BBX 7 8 0 -1
BITMAP
1c00
2200
4200
7e00
8000
8000
8800
7000
ENDCHAR
STARTCHAR f
ENCODING -1 102
SWIDTH 0 0
DWIDTH 6 0
BBX 7 11 0 -1
BITMAP
0e00
1000
2000
fc00
2000
4000
4000
4000
8000
8000
8000
ENDCHAR
STARTCHAR g
ENCODING -1 103
SWIDTH 0 0
DWIDTH 8 0
BBX 9 11 -1 -4
BITMAP
0e80
1180
2100
2100
4100
4200
4600
3a00
0400
8400
7800
ENDCHAR
STARTCHAR h
ENCODING -1 104
SWIDTH 0 0
DWIDTH 8 0
BBX 7 11 0 -1
BITMAP
1000
1000
2000
2c00
3200
4200
4400
4400
8400
8800
8800
ENDCHAR
STARTCHAR i
ENCODING -1 105
SWIDTH 0 0
DWIDTH 4 0
BBX 4 11 0 -1
BITMAP
1000
1000
0000
2000
2000
4000
4000
4000
8000
8000
8000
ENDCHAR
STARTCHAR j
ENCODING -1 106
SWIDTH 0 0
DWIDTH 4 0
BBX 7 14 -3 -4
BITMAP
0200
0200
0000
0400
0400
0800
0800
0800
0800
1000
1000
1000
2000
c000
ENDCHAR
STARTCHAR k
ENCODING -1 107
SWIDTH 0 0
DWIDTH 7 0
BBX 7 11 0 -1
BITMAP
1000
1000
2000
2200
2400
5800
6000
5000
9000
8800
8400
ENDCHAR
STARTCHAR l
ENCODING -1 108
SWIDTH 0 0
DWIDTH 4 0
BBX 4 11 0 -1
BITMAP
1000
1000
2000
2000
2000
4000
4000
4000
8000
8000
8000
ENDCHAR
STARTCHAR m
ENCODING -1 109
SWIDTH 0 0
DWIDTH 11 0
BBX 11 8 0 -1
BITMAP
2cc0
3320
4420
4440
4440
8840
8880
8880
ENDCHAR
STARTCHAR n
ENCODING -1 110
SWIDTH 0 0
DWIDTH 8 0
BBX 7 8 0 -1
BITMAP
2c00
3200
4200
4400
4400
8400
8800
8800
ENDCHAR
STARTCHAR o
ENCODING -1 111
SWIDTH 0 0
DWIDTH 8 0
BBX 7 8 0 -1
BITMAP
1c00
2200
4200
4200
8400
8400
8800
7000
ENDCHAR
STARTCHAR p
ENCODING -1 112
SWIDTH 0 0
DWIDTH 8 0
BBX 8 11 -1 -4
BITMAP
1600
1900
2100
2100
2100
4200
6200
5c00
4000
8000
8000
ENDCHAR
STARTCHAR q
ENCODING -1 113
SWIDTH 0 0
DWIDTH 8 0
BBX 8 11 0 -4
BITMAP
1d00
2300
4200
4200
8200
8400
8c00
7400
0400
0800
0800
ENDCHAR
STARTCHAR r
ENCODING -1 114
SWIDTH 0 0
DWIDTH 6 0
BBX 6 8 0 -1
BITMAP
2c00
3000
4000
4000
4000
8000
8000
8000
ENDCHAR
STARTCHAR s
ENCODING -1 115
SWIDTH 0 0
DWIDTH 7 0
BBX 7 8 0 -1
BITMAP
1c00
2200
4000
3800
0400
8400
8800
7000
ENDCHAR
STARTCHAR t
ENCODING -1 116
SWIDTH 0 0
DWIDTH 5 0
BBX 5 10 0 -1
BITMAP
1000
1000
7800
2000
4000
4000
4000
8000
8000
6000
ENDCHAR
STARTCHAR u
ENCODING -1 117
SWIDTH 0 0
DWIDTH 8 0
BBX 7 8 0 -1
BITMAP
2200
2200
4200
4400
4400
8400
9800
6800
ENDCHAR
STARTCHAR v
ENCODING -1 118
SWIDTH 0 0
DWIDTH 7 0
BBX 6 8 1 -1
BITMAP
8400
8800
8800
9000
9000
a000
a000
c000
ENDCHAR
STARTCHAR w
ENCODING -1 119
SWIDTH 0 0
DWIDTH 10 0
BBX 9 8 1 -1
BITMAP
8880
8880
9900
9900
aa00
aa00
cc00
8800
ENDCHAR
STARTCHAR x
ENCODING -1 120
SWIDTH 0 0
DWIDTH 7 0
BBX 8 8 -1 -1
BITMAP
2100
1200
1400
0800
1800
2400
4400
8200
ENDCHAR
STARTCHAR y
ENCODING -1 121
SWIDTH 0 0
DWIDTH 7 0
BBX 8 11 -1 -4
BITMAP
2100
2100
2200
2200
2400
2400
2800
1000
1000
2000
c000
ENDCHAR
STARTCHAR z
ENCODING -1 122
SWIDTH 0 0
DWIDTH 7 0
BBX 8 8 -1 -1
BITMAP
3f00
0100
0600
0800
3000
4000
8000
fc00
ENDCHAR
STARTCHAR {
ENCODING -1 123
SWIDTH 0 0
DWIDTH 5 0
BBX 6 14 1 -4
BITMAP
0c00
1000
2000
2000
2000
4000
8000
4000
4000
4000
8000
8000
8000
6000
ENDCHAR
STARTCHAR |
ENCODING -1 124
SWIDTH 0 0
DWIDTH 3 0
BBX 5 14 0 -4
BITMAP
0800
0800
1000
1000
1000
2000
2000
2000
4000
4000
4000
4000
8000
8000
ENDCHAR
STARTCHAR }
ENCODING -1 125
SWIDTH 0 0
DWIDTH 5 0
BBX 7 14 -1 -4
BITMAP
0c00
0200
0200
0400
0400
0400
0200
0400
0800
0800
0800
1000
1000
e000
ENDCHAR
STARTCHAR ~
ENCODING -1 126
SWIDTH 0 0
DWIDTH 8 0
BBX 6 3 2 2
BITMAP
6400
b400
9800
ENDCHAR
ENDFONT
